<?xml version="1.0" encoding="UTF-8" standalone="no"?>
<svg
   width="162"
   height="119"
   viewBox="0 0 162 119"
   version="1.1"
   id="svg152"
   sodipodi:docname="linkages1.svg"
   inkscape:version="1.2.2 (732a01da63, 2022-12-09)"
   xmlns:inkscape="http://www.inkscape.org/namespaces/inkscape"
   xmlns:sodipodi="http://sodipodi.sourceforge.net/DTD/sodipodi-0.dtd"
   xmlns="http://www.w3.org/2000/svg"
   xmlns:svg="http://www.w3.org/2000/svg">
  <sodipodi:namedview
     id="namedview154"
     pagecolor="#ffffff"
     bordercolor="#000000"
     borderopacity="0.25"
     inkscape:showpageshadow="2"
     inkscape:pageopacity="0.0"
     inkscape:pagecheckerboard="0"
     inkscape:deskcolor="#d1d1d1"
     showgrid="false"
     inkscape:zoom="4.4957983"
     inkscape:cx="100.87196"
     inkscape:cy="59.611215"
     inkscape:window-width="1366"
     inkscape:window-height="715"
     inkscape:window-x="-8"
     inkscape:window-y="-8"
     inkscape:window-maximized="1"
     inkscape:current-layer="svg152" />
  <defs
     id="defs82">
    <clipPath
       id="1n3v5qmiia">
      <rect
         data-name="Rectangle 4444"
         width="162"
         height="119"
         rx="20"
         transform="translate(18 477)"
         style="fill:#c69f89"
         id="rect79" />
    </clipPath>
  </defs>
  <g
     data-name="Mask Group 5"
     transform="translate(-17.77757,-477.44486)"
     clip-path="url(#1n3v5qmiia)"
     id="g134">
    <g
       id="g2412">
      <rect
         data-name="Rectangle 4458"
         width="204"
         height="149"
         rx="20"
         transform="translate(-3,462)"
         style="fill:#ffffff"
         id="rect84"
         x="0"
         y="0"
         inkscape:label="rect84" />
    </g>
    <g
       data-name="Plant Right"
       style="opacity:0.2"
       id="g96">
      <path
         data-name="Leaf Me Alone!"
         d="m 6.96,0.01 c 3.507,0.186 7.606,2.675 7.58,6.505 -0.019,2.783 -0.392,5.521 -0.262,8.315 a 22.393,22.393 0 0 0 1.343,6.522 c 0.725,2.023 2.478,3.864 2.762,5.974 a 8.872,8.872 0 0 1 -0.766,4.4 c -0.7,1.5 -0.4,1.409 0.527,2.829 a 35.7,35.7 0 0 1 4.433,8.81 c 1.453,4.611 2.167,9.9 0.949,14.649 -0.155,0.6 -0.493,2.792 -1.353,2.857 -0.961,0.073 -0.388,-1.139 -0.295,-1.54 a 26.714,26.714 0 0 0 1.006,-7.469 C 22.459,41.545 15.874,34.085 12.034,24.962 11.82,24.49 11.38,23.373 11.071,22.634 10.582,21.468 10.195,19.305 9.463,18.401 c -1.38,-1.7 -0.288,1.544 -0.05,2.166 0.3,0.788 0.635,1.627 0.956,2.323 1.461,3.225 3.1,6.75 4.61,10.075 C 6.835,33.948 2.238,23.8 0.765,17.287 -0.449,11.923 -1.281,-0.408 6.96,0.01"
         transform="rotate(-6.02,5138.878,-975.994)"
         style="fill:#ff8080"
         id="path86" />
      <path
         data-name="Leaf Me Alone!"
         d="M 26.151,0.031 C 20.289,0.5 16.525,4.365 14.773,9.775 c -0.944,2.916 -1.052,5.911 -1.577,8.908 a 19.031,19.031 0 0 1 -5.807,11.137 11.208,11.208 0 0 0 -2.324,3.109 13.241,13.241 0 0 0 -2.684,3.835 7.083,7.083 0 0 0 -0.112,6.162 6.317,6.317 0 0 0 1.649,2.025 39.685,39.685 0 0 0 -3.9,17.825 c 0.1,3.691 0.278,7.383 0.489,11.069 0.057,0.99 0.379,2.624 0.863,0.964 C 1.813,73.291 1.257,70.909 1.206,69.321 0.95,61.595 0.736,54.569 3.917,47.35 q 0.5,-1.135 1.056,-2.252 a 0.748,0.748 0 0 0 0.062,-0.042 l 0.041,0.033 C 5.1,45.047 5.132,44.997 5.169,44.941 a 1.991,1.991 0 0 0 0.286,-0.4 2.9,2.9 0 0 0 0.6,-1.1 V 43.434 A 104.025,104.025 0 0 1 12.584,34.2 c -0.017,0.022 2.5,-3.4 2.11,-1.51 -0.188,0.913 -2.038,2.652 -2.786,3.619 A 90.156,90.156 0 0 0 6.7,43.825 3.794,3.794 0 0 0 5.954,45.019 c -0.122,0.231 -0.237,0.464 -0.349,0.667 5.717,1.889 10.165,-1.916 13.2,-6.341 l 0.01,-0.016 a 19.23,19.23 0 0 1 3.049,-3.4 c 1.97,-1.613 4.081,-1.9 6.4,-2.691 6.335,-2.165 9.029,-10.375 9.885,-16.468 0.965,-6.873 -3.756,-17.413 -12,-16.735"
         transform="translate(158.646,523.77)"
         style="fill:#ff8080"
         id="path88" />
      <path
         data-name="Leaf Me Alone!"
         d="M 25.2,0.586 C 18.366,5.95 14.279,14.147 10.863,21.913 A 105.176,105.176 0 0 0 2.693,48.9 C 1.784,55.065 0.744,61.249 0.238,67.462 A 66.217,66.217 0 0 0 0.01,74.1 c 0,0.182 0.1,5.125 1,4.1 C 1.522,77.619 0.919,73.074 0.93,72.332 A 95.066,95.066 0 0 1 2.057,59.884 c 1,-6.8 1.749,-13.6 3.391,-20.279 A 23.166,23.166 0 0 1 6.3,36.6 c 0.4,-1.017 0.014,-0.6 0.9,-0.9 0.865,-0.292 1.855,-0.093 2.765,-0.484 3.609,-1.549 6.038,-6.489 7.839,-9.7 A 65.751,65.751 0 0 0 22.677,13.841 86.326,86.326 0 0 0 25.1,4.961 23.76,23.76 0 0 1 25.77,2.092 6.634,6.634 0 0 0 26.2,1.2 C 26.247,0.72 26,0.4 26.032,0 q -0.421,0.284 -0.831,0.586"
         transform="rotate(-8,3702.744,-805.832)"
         style="fill:#ff8080"
         id="path90" />
      <path
         d="M 0,0 A 18.752,18.752 0 1 0 37.5,0"
         transform="translate(140.408,587.989)"
         style="fill:#ff8080"
         id="path92" />
      <path
         data-name="Leaf Me Alone!"
         d="M 19.886,23 A 2.965,2.965 0 0 1 17.897,22.321 3.867,3.867 0 0 1 16.825,20.646 14.046,14.046 0 0 1 16.26,16.488 16.388,16.388 0 0 0 15.648,12 7.829,7.829 0 0 0 13.148,8.283 C 12.827,8.013 12.485,7.757 12.154,7.509 11.854,7.288 11.554,7.059 11.265,6.822 L 11.127,6.709 C 10.2,5.954 9.24,5.17 9.123,3.929 a 1.89,1.89 0 0 1 0.34,-1.506 1.494,1.494 0 0 1 1.15,-0.4 4.859,4.859 0 0 1 0.977,0.116 c 0.051,0.011 0.189,0.062 0.38,0.132 a 7.629,7.629 0 0 0 1.943,0.537 c 0.149,0 0.248,-0.033 0.292,-0.1 A 0.275,0.275 0 0 0 14.192,2.444 C 14.08,2.182 13.692,1.951 13.047,1.756 11.747,1.618 10.513,1.494 9.78,1.494 A 2.494,2.494 0 0 0 9.306,1.527 7.244,7.244 0 0 0 5.806,3.422 12.074,12.074 0 0 0 3.395,6.811 25.276,25.276 0 0 0 1.156,14.718 C 1.101,15.176 1.051,15.672 1.003,16.234 H 0 A 32.008,32.008 0 0 1 0.372,12.58 23.005,23.005 0 0 1 3.023,5.042 11.265,11.265 0 0 1 5.614,1.978 7.3,7.3 0 0 1 9.209,0.41 5.474,5.474 0 0 1 9.789,0.389 c 0.377,0 0.832,0.014 1.279,0.04 A 3.409,3.409 0 0 1 12.487,0.021 C 12.687,0.007 12.887,0 13.092,0 a 10.562,10.562 0 0 1 3.421,0.609 14.9,14.9 0 0 1 3.268,1.616 16.948,16.948 0 0 1 2.824,2.3 A 13.971,13.971 0 0 1 24.7,7.2 10.09,10.09 0 0 1 26,12.347 16.235,16.235 0 0 1 25.087,17.636 11.984,11.984 0 0 1 23.258,21.131 4.322,4.322 0 0 1 19.933,23 Z"
         transform="translate(159,572)"
         style="fill:#ff8080"
         id="path94" />
    </g>
    <g
       data-name="Group 10"
       id="g122">
      <path
         d="m 11.071,29.169 a 2.044,2.044 0 0 0 -2.7,-1.048 c -2.862,0.873 -5.224,2.85 -8.059,0.5 C -0.037,28.332 -0.33,27.387 0.777,26.836 3.537,25.463 7.589,22.952 8.219,22.027 9.512,20.132 16.965,0 16.965,0 l 6.12,0.889 c 0,0 -9.853,21.377 -10.565,22.611 -1.068,1.851 0.188,5.074 0.678,6.781 a 2.074,2.074 0 0 1 -0.574,0.09 c -0.789,0 -1.152,-0.601 -1.553,-1.202 z M 71.914,14.94 61.342,9.664 l 2.85,-5.838 10.429,8.842 a 29.667,29.667 0 0 1 7.264,3.526 c 0.442,0.464 0.952,1.376 -1,1.088 -1.952,-0.288 -4.013,-0.5 -4.33,0.147 -0.317,0.647 0.813,1.532 0.2,2.4 a 0.256,0.256 0 0 1 -0.221,0.113 Q 75.6,19.937 71.914,14.94 Z"
         transform="translate(24.564,537.711)"
         style="fill:#b28b67"
         id="path98" />
      <path
         data-name="Coat Back"
         d="M 0,1.926 4.295,0 c 6.244,12.352 14.343,24.415 28.026,33.759 L 29.64,39.483 C 17.84,33.855 6.769,29.649 1.59,20.107 -0.147,16.9 0.23,5.917 0,1.926 Z"
         transform="rotate(5.13,-5823.918,1041.03)"
         style="fill:#465d7c"
         id="path100" />
      <path
         data-name="Clothes Body"
         d="M 0,46.451 H 28.9 C 23.559,35.534 20.529,2.476 19.98,0.012 l -3.231,-0.49 C 10.97,9.719 0.988,30.676 0,46.451 Z"
         transform="translate(51.959,511.235)"
         style="fill:#5b7aa3;stroke-miterlimit:10"
         id="path102" />
      <path
         data-name="Head"
         d="M 0,24.718 2.917,11.678 A 8.958,8.958 0 0 1 0.373,5.088 c 0.53,-7.246 11.05,-5.652 13.1,-1.995 2.05,3.657 1.8,12.934 -0.841,13.588 -1.055,0.261 -3.3,-0.378 -5.588,-1.7 l 1.435,9.737 z"
         transform="translate(62.179,493.829)"
         style="fill:#b28b67"
         id="path104" />
      <path
         d="m 69.317,508.182 c -0.557,-1.682 -0.769,-6.525 -0.821,-7.956 a 2.1,2.1 0 0 0 -0.249,-0.015 2.073,2.073 0 0 0 -1.448,3.556 31.593,31.593 0 0 1 -1.633,2.114 c -2.314,-1.388 -4.03,-5.453 -1.769,-9.357 a 5.119,5.119 0 0 1 3.713,-3.407 6.015,6.015 0 0 1 3.948,-0.293 12.844,12.844 0 0 1 4.993,1.331 c 0,2.2 -0.427,2.856 -4.072,2.8 a 6.724,6.724 0 0 0 -2.3,2.355 c 0.005,0.071 0.487,6.632 2.519,6.632 2.032,0 3.776,-1.3 4.672,-1.3 0.653,0 0.507,0.818 0.074,1.424 -0.357,0.5 -2.1,0.982 -2.1,1.758 0,0.438 0.438,0.437 0.82,0.436 0.294,0 0.555,0 0.555,0.2 0,0.761 0.242,2.191 -1.079,2.191 -1.335,0.002 -5.166,-0.485 -5.823,-2.469 z"
         id="path106" />
      <path
         d="m 0,0 12.526,43.957 9.139,32.4 h 6.666 L 15.49,0 Z"
         transform="translate(59.61,547.2)"
         style="fill:#191847"
         id="path108" />
      <path
         data-name="Leg"
         d="M 15.381,0 C 15.091,22.656 14.1,35.013 13.8,37.072 13.5,39.131 8.9,52.225 0,76.356 H 6.905 Q 23.892,41.631 25.87,37.072 c 1.319,-3.04 1.27,-15.4 7.4,-37.072 z"
         transform="translate(40.88,547.2)"
         style="fill:#2f3676"
         id="path110" />
      <path
         d="M 0,7.256 0.346,0 H 7.6 c 5.161,3.628 13.475,5.874 13.475,5.874 V 7.256 H 7.947 L 3.455,6.565 v 0.691 z"
         style="fill:#191847"
         transform="translate(39.933,622.745)"
         data-name="Left Shoe"
         id="path112" />
      <g
         data-name="Right Shoe"
         id="g116">
        <path
           data-name="Shoe"
           d="M 0,7.256 0.346,0 H 7.6 c 5.161,3.628 13.475,5.874 13.475,5.874 V 7.256 H 7.947 L 3.455,6.565 v 0.691 z"
           transform="translate(80.717,622.745)"
           style="fill:#191847"
           id="path114" />
      </g>
      <path
         d="m 0,37.417 c 0,0 10.714,1.728 20.07,0 a 2.508,2.508 0 0 0 1.313,-2.711 C 15.8,21.032 16.778,9.5 16.778,0 15.242,0.774 11.4,0.232 11.4,0.232 4.521,10.02 1.359,21.25 0,37.417 Z"
         transform="translate(54.082,511.51)"
         style="fill:#ffffff"
         id="path118" />
      <g
         id="g2409">
        <path
           data-name="Coat Front"
           d="M 0,46.953 C 7.449,14.852 30.848,0 30.848,0 V 0.017 L 34.06,0.5 c 0.548,2.465 3.578,35.522 8.919,46.439 h -28.9 C 14.479,40.556 16.352,33.324 18.823,26.3 14.782,30.762 10.29,37.75 6.588,48.64 Z"
           transform="translate(32.935,510.743)"
           style="fill:#5b7aa3"
           id="path120" />
      </g>
    </g>
    <path
       data-name="Path 50"
       d="m 41.649,12.9 v -0.559 a 1.862,1.862 0 0 0 -1.862,-1.862 h -4.472 a 1.862,1.862 0 0 0 -1.862,1.862 V 12.9 H 34.2 v -0.559 a 1.117,1.117 0 0 1 1.118,-1.117 h 4.471 a 1.117,1.117 0 0 1 1.118,1.117 V 12.9 h 0.745 z"
       transform="rotate(-11,2844.342,-193.5)"
       style="fill:#ffffff;fill-rule:evenodd"
       id="path124" />
    <path
       data-name="Path 51"
       d="m 46.324,50.522 a 1.853,1.853 0 1 1 -1.853,-1.854 1.853,1.853 0 0 1 1.853,1.854"
       transform="rotate(-11,2698.066,-143.15)"
       style="fill:#666666;fill-rule:evenodd"
       id="path126" />
    <path
       data-name="Path 52"
       d="m 18.539,54.606 v 1.517 a 1.491,1.491 0 0 1 -1.49,1.491 H 16.68 A 1.491,1.491 0 0 1 15.19,56.123 V 54.606 A 2.6,2.6 0 0 1 14.297,53.024 0.728,0.728 0 0 1 14.146,53.011 L 6.06,51.446 v 7.667 A 1.491,1.491 0 0 0 7.55,60.6 h 18.631 a 1.49,1.49 0 0 0 1.49,-1.49 v -7.664 l -8.088,1.565 a 0.734,0.734 0 0 1 -0.151,0.013 2.6,2.6 0 0 1 -0.893,1.582 z"
       transform="rotate(-11,2673.369,-285.445)"
       style="fill:#808080;fill-rule:evenodd"
       id="path128" />
    <path
       data-name="Path 53"
       d="m 11.993,31.106 a 2.6,2.6 0 0 1 5.154,0 l 8.371,-1.62 a 0.745,0.745 0 0 0 0.6,-0.732 v -4.6 A 0.745,0.745 0 0 0 25.373,23.409 H 3.764 a 0.745,0.745 0 0 0 -0.745,0.745 v 4.6 a 0.745,0.745 0 0 0 0.6,0.732 l 8.371,1.62 z"
       transform="rotate(-11,2782.166,-307.953)"
       style="fill:#999999;fill-rule:evenodd"
       id="path130" />
    <path
       data-name="Path 54"
       d="m 48.242,66.145 a 2.607,2.607 0 0 1 -1.863,0 v 1.077 a 0.745,0.745 0 0 0 0.745,0.745 H 47.5 a 0.745,0.745 0 0 0 0.745,-0.745 v -1.077 z"
       transform="rotate(-11,2630.958,-121.803)"
       style="fill:#333333;fill-rule:evenodd"
       id="path132" />
  </g>
  <path
     data-name="Path 57"
     d="m 106.89672,50.21343 a 3.473,3.473 0 0 0 -4.912,0 l -1.937,1.938 a 4.268,4.268 0 0 1 0.464,-0.024 4.491,4.491 0 0 1 1.419,0.228 l 1.1,-1.1 a 2,2 0 0 1 2.825,2.824 l -2.151,2.15 a 2,2 0 0 1 -3.25,-0.628 0.993,0.993 0 0 0 -0.649,0.29 l -0.572,0.573 a 3.515,3.515 0 0 0 0.6,0.809 3.474,3.474 0 0 0 4.912,0 l 2.149,-2.15 a 3.473,3.473 0 0 0 0,-4.911 z"
     style="fill:#4d4d4d"
     id="path140" />
  <path
     data-name="Path 58"
     d="m 102.31472,59.28943 a 4.451,4.451 0 0 1 -1.435,-0.236 l -1.105,1.106 a 2,2 0 1 1 -2.824,-2.824 l 2.149,-2.149 a 2,2 0 0 1 3.251,0.629 0.988,0.988 0 0 0 0.65,-0.29 l 0.571,-0.572 a 3.476,3.476 0 0 0 -5.515,-0.81 l -2.149,2.15 a 3.473,3.473 0 0 0 4.911,4.912 l 1.935,-1.936 a 4.88,4.88 0 0 1 -0.437,0.021 z"
     style="fill:#999999"
     id="path142" />
  <g
     id="g148"
     transform="translate(0.88971962,0.2224299)"
     style="fill:#999999">
    <path
       data-name="Path 55"
       d="M 13.048,25 H 22.9 a 0.588,0.588 0 0 1 0.548,0.548 V 36.5 A 0.547,0.547 0 0 1 22.9,37.048 H 13.048 A 0.588,0.588 0 0 1 12.5,36.5 V 25.548 A 0.547,0.547 0 0 1 13.048,25 Z"
       transform="rotate(-22,117.211,-219.21)"
       style="fill:#999999"
       id="path144" />
    <path
       data-name="Path 56"
       d="M 35.4,6.25 H 25.548 A 0.547,0.547 0 0 0 25,6.8 v 1.1 a 0.547,0.547 0 0 0 0.548,0.548 h 9.309 v 9.309 a 0.55,0.55 0 1 0 1.1,0 V 6.8 A 0.547,0.547 0 0 0 35.4,6.25 Z"
       transform="rotate(-22,162.144,-200.421)"
       style="fill:#999999"
       id="path146" />
  </g>
</svg>
