<?xml version="1.0" encoding="UTF-8" standalone="no"?>
<svg
   width="340"
   height="172"
   viewBox="0 0 340 172"
   version="1.1"
   id="svg688"
   xmlns="http://www.w3.org/2000/svg"
   xmlns:svg="http://www.w3.org/2000/svg">
  <defs
     id="defs350">
    <clipPath
       id="74lrkztwqa">
      <path
         data-name="Rectangle 4733"
         transform="translate(18 637)"
         style="fill:#fff"
         d="M0 0h173v82H0z"
         id="path347" />
    </clipPath>
  </defs>
  <rect
     data-name="Rectangle 4446"
     width="340"
     height="172"
     rx="20"
     style="fill:#ffffff"
     id="rect352"
     x="0"
     y="0" />
  <g
     transform="translate(168.627,42.526)"
     id="g416">
    <rect
       width="44"
       height="85"
       rx="8"
       transform="translate(0.373,0.474)"
       style="fill:#b3b3b3"
       id="rect358"
       x="0"
       y="0" />
    <ellipse
       cx="3.5"
       cy="4"
       rx="3.5"
       ry="4"
       transform="translate(18.373,72.474)"
       style="fill:#ffffff"
       id="ellipse360" />
    <g
       transform="translate(17.988,3.787)"
       id="g366">
      <ellipse
         cx="1"
         cy="1.5"
         rx="1"
         ry="1.5"
         transform="translate(0.385,-0.313)"
         style="fill:#ffffff"
         id="ellipse362" />
      <rect
         width="5"
         height="3"
         rx="1.5"
         transform="translate(2.385,-0.313)"
         style="fill:#ffffff"
         id="rect364"
         x="0"
         y="0" />
    </g>
    <g
       transform="translate(3.787,8.521)"
       id="g378">
      <rect
         width="38"
         height="15"
         rx="4"
         transform="translate(-0.414,-0.046)"
         style="fill:#ffffff"
         id="rect368"
         x="0"
         y="0" />
      <g
         transform="translate(10.861,4.232)"
         id="g374">
        <rect
           width="20.778999"
           height="2.306"
           rx="1.153"
           style="fill:#dde3e9"
           id="rect370"
           x="0"
           y="0" />
        <rect
           data-name="Name"
           width="13.947"
           height="2.306"
           rx="1.153"
           transform="translate(0,3.843)"
           style="fill:#dde3e9"
           id="rect372"
           x="0"
           y="0" />
      </g>
      <ellipse
         cx="4"
         cy="3.5"
         rx="4"
         ry="3.5"
         transform="translate(1.586,3.954)"
         style="fill:#c5cfd6"
         id="ellipse376" />
    </g>
    <g
       data-name="Row"
       transform="translate(3.787,26.509)"
       id="g390">
      <rect
         data-name="Background"
         width="38"
         height="11"
         rx="4"
         transform="translate(-0.414,-0.035)"
         style="fill:#ffffff"
         id="rect380"
         x="0"
         y="0" />
      <g
         data-name="Text"
         transform="translate(10.861,2.867)"
         id="g386">
        <rect
           data-name="Name"
           width="20.778999"
           height="1.793"
           rx="0.89700001"
           style="fill:#dde3e9"
           id="rect382"
           x="0"
           y="0" />
        <rect
           data-name="Name"
           width="13.947"
           height="1.793"
           rx="0.89700001"
           transform="translate(0,2.989)"
           style="fill:#dde3e9"
           id="rect384"
           x="0"
           y="0" />
      </g>
      <ellipse
         data-name="Avatar"
         cx="4"
         cy="3.5"
         rx="4"
         ry="3.5"
         transform="translate(1.586,1.965)"
         style="fill:#c5cfd6"
         id="ellipse388" />
    </g>
    <g
       data-name="Row"
       transform="translate(3.787,39.764)"
       id="g402">
      <rect
         data-name="Background"
         width="38"
         height="13"
         rx="4"
         transform="translate(-0.414,-0.289)"
         style="fill:#ffffff"
         id="rect392"
         x="0"
         y="0" />
      <g
         data-name="Text"
         transform="translate(10.861,3.844)"
         id="g398">
        <rect
           data-name="Name"
           width="20.778999"
           height="1.793"
           rx="0.89700001"
           style="fill:#dde3e9"
           id="rect394"
           x="0"
           y="0" />
        <rect
           data-name="Name"
           width="13.947"
           height="1.793"
           rx="0.89700001"
           transform="translate(0,2.989)"
           style="fill:#dde3e9"
           id="rect396"
           x="0"
           y="0" />
      </g>
      <circle
         data-name="Avatar"
         cx="3.5"
         cy="3.5"
         r="3.5"
         transform="translate(1.586,2.711)"
         style="fill:#afb9c5"
         id="circle400" />
    </g>
    <g
       data-name="Row"
       transform="translate(3.787,53.965)"
       id="g414">
      <rect
         data-name="Background"
         width="38"
         height="14"
         rx="4"
         transform="translate(-0.414,-0.49)"
         style="fill:#ffffff"
         id="rect404"
         x="0"
         y="0" />
      <g
         data-name="Text"
         transform="translate(10.861,3.875)"
         id="g410">
        <rect
           data-name="Name"
           width="20.778999"
           height="1.793"
           rx="0.89700001"
           style="fill:#dde3e9"
           id="rect406"
           x="0"
           y="0" />
        <rect
           data-name="Name"
           width="13.947"
           height="1.793"
           rx="0.89700001"
           transform="translate(0,2.989)"
           style="fill:#dde3e9"
           id="rect408"
           x="0"
           y="0" />
      </g>
      <ellipse
         data-name="Avatar"
         cx="4"
         cy="3.5"
         rx="4"
         ry="3.5"
         transform="translate(1.586,2.51)"
         style="fill:#c5cfd6"
         id="ellipse412" />
    </g>
  </g>
  <g
     data-name="Mobile3"
     transform="translate(197.03,51.047)"
     id="g488">
    <rect
       data-name="Container"
       width="45"
       height="85"
       rx="8"
       transform="translate(-0.03,-0.046)"
       style="fill:#b3b3b3"
       id="rect418"
       x="0"
       y="0" />
    <ellipse
       data-name="Touch"
       cx="4"
       cy="4.5"
       rx="4"
       ry="4.5"
       transform="translate(18.97,71.954)"
       style="fill:#ffffff"
       id="ellipse420" />
    <g
       data-name="Camera"
       transform="translate(18.935,3.787)"
       id="g426">
      <ellipse
         data-name="Lens"
         cy="0.5"
         ry="0.5"
         transform="translate(0.036,0.167)"
         style="fill:#ffffff"
         id="ellipse422"
         cx="0"
         rx="0" />
      <rect
         data-name="Sensor"
         width="5"
         height="1"
         rx="0.5"
         transform="translate(3.036,0.167)"
         style="fill:#ffffff"
         id="rect424"
         x="0"
         y="0" />
    </g>
    <g
       data-name="Rows"
       id="g486">
      <g
         data-name="Row"
         transform="translate(4.734,7.574)"
         id="g442">
        <rect
           data-name="Container"
           width="38"
           height="15"
           rx="4"
           transform="translate(0.237,0.38)"
           style="fill:#ffffff"
           id="rect428"
           x="0"
           y="0" />
        <g
           data-name="Text Stuff"
           transform="translate(2.19,4.059)"
           id="g434">
          <rect
             width="20.778999"
             height="2.306"
             rx="1.153"
             style="fill:#dde3e9"
             id="rect430"
             x="0"
             y="0" />
          <rect
             data-name="Label"
             width="13.947"
             height="2.306"
             rx="1.153"
             transform="translate(0,3.843)"
             style="fill:#dde3e9"
             id="rect432"
             x="0"
             y="0" />
        </g>
        <g
           transform="translate(31.243,4.734)"
           id="g440">
          <ellipse
             data-name="Background"
             cx="2"
             cy="3"
             rx="2"
             ry="3"
             transform="translate(-0.006,-0.354)"
             style="fill:#dde3e9"
             id="ellipse436" />
          <circle
             cx="1"
             cy="1"
             r="1"
             transform="translate(-0.006,0.646)"
             style="fill:#f2f2f2"
             id="circle438" />
        </g>
      </g>
      <g
         data-name="Row"
         transform="translate(4.734,24.615)"
         id="g454">
        <rect
           data-name="Background"
           width="38"
           height="11"
           rx="4"
           transform="translate(0.237,0.338)"
           style="fill:#ffffff"
           id="rect444"
           x="0"
           y="0" />
        <g
           data-name="Text"
           transform="translate(10.729,3.64)"
           id="g450">
          <rect
             data-name="Name"
             width="20.778999"
             height="1.793"
             rx="0.89700001"
             style="fill:#dde3e9"
             id="rect446"
             x="0"
             y="0" />
          <rect
             data-name="Name"
             width="13.947"
             height="1.793"
             rx="0.89700001"
             transform="translate(0,2.989)"
             style="fill:#dde3e9"
             id="rect448"
             x="0"
             y="0" />
        </g>
        <circle
           data-name="Avatar"
           cx="3.5"
           cy="3.5"
           r="3.5"
           transform="translate(2.237,2.338)"
           style="fill:#c5cfd6"
           id="circle452" />
      </g>
      <g
         data-name="Row"
         transform="translate(4.734,39.763)"
         id="g470">
        <rect
           data-name="Container"
           width="38"
           height="11"
           rx="4"
           transform="translate(0.237,0.19)"
           style="fill:#ffffff"
           id="rect456"
           x="0"
           y="0" />
        <g
           data-name="Text Stuff"
           transform="translate(2.19,2.724)"
           id="g462">
          <rect
             data-name="Label"
             width="20.778999"
             height="1.793"
             rx="0.89700001"
             style="fill:#dde3e9"
             id="rect458"
             x="0"
             y="0" />
          <rect
             data-name="Label"
             width="13.947"
             height="1.793"
             rx="0.89700001"
             transform="translate(0,2.989)"
             style="fill:#afb9c5"
             id="rect460"
             x="0"
             y="0" />
        </g>
        <g
           data-name="Check"
           transform="translate(31.243,2.84)"
           id="g468">
          <ellipse
             data-name="Background"
             cx="2"
             cy="1.5"
             rx="2"
             ry="1.5"
             transform="translate(-0.006,0.35)"
             style="fill:#dde3e9"
             id="ellipse464" />
          <ellipse
             data-name="Indicator"
             cx="1"
             cy="0.5"
             rx="1"
             ry="0.5"
             transform="translate(-0.006,1.35)"
             style="fill:#f2f2f2"
             id="ellipse466" />
        </g>
      </g>
      <g
         data-name="Row"
         transform="translate(4.734,53.018)"
         id="g484">
        <rect
           data-name="Background"
           width="38"
           height="11"
           rx="4"
           transform="translate(0.237,-0.064)"
           style="fill:#ffffff"
           id="rect472"
           x="0"
           y="0" />
        <g
           data-name="Text"
           transform="translate(10.729,3.702)"
           id="g478">
          <rect
             data-name="Name"
             width="20.778999"
             height="1.793"
             rx="0.89700001"
             style="fill:#dde3e9"
             id="rect474"
             x="0"
             y="0" />
          <rect
             data-name="Name"
             width="13.947"
             height="1.793"
             rx="0.89700001"
             transform="translate(0,2.989)"
             style="fill:#dde3e9"
             id="rect476"
             x="0"
             y="0" />
        </g>
        <ellipse
           data-name="Avatar"
           cx="2.5"
           cy="3.5"
           rx="2.5"
           ry="3.5"
           transform="translate(3.237,2.936)"
           style="fill:#c5cfd6"
           id="ellipse480" />
        <ellipse
           data-name="Avatar"
           cx="3.5"
           cy="4"
           rx="3.5"
           ry="4"
           transform="translate(2.237,1.936)"
           style="fill:#c5cfd6"
           id="ellipse482" />
      </g>
    </g>
  </g>
  <g
     transform="translate(226.379,56.727)"
     id="g626">
    <rect
       data-name="Container"
       width="96"
       height="98"
       rx="8"
       transform="translate(-0.379,0.273)"
       style="fill:#b3b3b3"
       id="rect490"
       x="0"
       y="0" />
    <rect
       data-name="Background"
       width="20"
       height="24"
       rx="8"
       transform="translate(70.621,12.273)"
       style="fill:#ffffff"
       id="rect492"
       x="0"
       y="0" />
    <g
       data-name="Profile Info"
       transform="translate(74.793,17.041)"
       id="g500">
      <ellipse
         data-name="Avatar"
         cx="5"
         cy="4.5"
         rx="5"
         ry="4.5"
         transform="translate(1.828,0.232)"
         style="fill:#dde3e9"
         id="ellipse494" />
      <rect
         data-name="Name"
         width="13"
         height="2"
         rx="1"
         transform="translate(-0.172,10.232)"
         style="fill:#dde3e9"
         id="rect496"
         x="0"
         y="0" />
      <rect
         data-name="Name"
         width="11"
         height="2"
         rx="1"
         transform="translate(0.828,12.232)"
         style="fill:#dde3e9"
         id="rect498"
         x="0"
         y="0" />
    </g>
    <path
       d="m 7,0 h 82 a 7,7 0 0 1 7,7 H 0 A 7,7 0 0 1 7,0 Z"
       transform="translate(-0.379,0.273)"
       style="fill:#c5cfd6"
       id="path502" />
    <g
       transform="translate(2.84,3.787)"
       id="g510">
      <ellipse
         data-name="buttons"
         cx="1.5"
         cy="0.5"
         rx="1.5"
         ry="0.5"
         transform="translate(-0.219,0.486)"
         style="fill:#f2f2f2"
         id="ellipse504" />
      <ellipse
         data-name="buttons"
         cx="1.5"
         cy="0.5"
         rx="1.5"
         ry="0.5"
         transform="translate(2.781,0.486)"
         style="fill:#f2f2f2"
         id="ellipse506" />
      <ellipse
         data-name="buttons"
         cx="1"
         cy="0.5"
         rx="1"
         ry="0.5"
         transform="translate(6.781,0.486)"
         style="fill:#f2f2f2"
         id="ellipse508" />
    </g>
    <g
       transform="translate(71.006,37.87)"
       id="g526">
      <rect
         data-name="Background"
         width="20"
         height="55"
         rx="8"
         transform="translate(-0.385,0.403)"
         style="fill:#ffffff"
         id="rect512"
         x="0"
         y="0" />
      <g
         data-name="Rows"
         transform="translate(4.734,5.68)"
         id="g524">
        <rect
           width="11"
           height="7"
           rx="3.5"
           transform="translate(-0.118,-0.277)"
           style="fill:#dde3e9"
           id="rect514"
           x="0"
           y="0" />
        <rect
           data-name="Data"
           width="11"
           height="6"
           rx="3"
           transform="translate(-0.118,9.723)"
           style="fill:#afb9c5"
           id="rect516"
           x="0"
           y="0" />
        <rect
           data-name="Data"
           width="11"
           height="9"
           rx="4"
           transform="translate(-0.118,17.723)"
           style="fill:#dde3e9"
           id="rect518"
           x="0"
           y="0" />
        <rect
           data-name="Data"
           width="11"
           height="7"
           rx="3.5"
           transform="translate(-0.118,37.723)"
           style="fill:#dde3e9"
           id="rect520"
           x="0"
           y="0" />
        <rect
           data-name="Data"
           width="11"
           height="7"
           rx="3.5"
           transform="translate(-0.118,27.723)"
           style="fill:#c5cfd6"
           id="rect522"
           x="0"
           y="0" />
      </g>
    </g>
    <g
       data-name="Rows"
       id="g624">
      <g
         data-name="Row"
         transform="translate(5.68,13.254)"
         id="g542">
        <rect
           data-name="Container"
           width="63"
           height="13"
           rx="4"
           transform="translate(-0.059,0.019)"
           style="fill:#ffffff"
           id="rect528"
           x="0"
           y="0" />
        <g
           data-name="Text Stuff"
           transform="translate(1.682,3.77)"
           id="g534">
          <rect
             data-name="Label"
             width="47.534"
             height="2.007"
             rx="1.003"
             style="fill:#dde3e9"
             id="rect530"
             x="0"
             y="0" />
          <rect
             data-name="Label"
             width="31.907"
             height="2.007"
             rx="1.003"
             transform="translate(0,3.344)"
             style="fill:#dde3e9"
             id="rect532"
             x="0"
             y="0" />
        </g>
        <g
           data-name="Check"
           transform="translate(54.326,4.453)"
           id="g540">
          <circle
             data-name="Background"
             cx="1.992"
             cy="1.992"
             r="1.992"
             style="fill:#dde3e9"
             id="circle536" />
          <circle
             data-name="Indicator"
             cx="0.85399997"
             cy="0.85399997"
             r="0.85399997"
             transform="translate(1.139,1.139)"
             style="fill:#f2f2f2"
             id="circle538" />
        </g>
      </g>
      <g
         data-name="Row"
         transform="translate(5.68,28.402)"
         id="g558">
        <rect
           data-name="Container"
           width="63"
           height="11"
           rx="4"
           transform="translate(-0.059,-0.129)"
           style="fill:#ffffff"
           id="rect544"
           x="0"
           y="0" />
        <g
           data-name="Text Stuff"
           transform="translate(1.682,3.594)"
           id="g550">
          <rect
             data-name="Label"
             width="47.534"
             height="1.665"
             rx="0.833"
             style="fill:#dde3e9"
             id="rect546"
             x="0"
             y="0" />
          <rect
             data-name="Label"
             width="31.907"
             height="1.665"
             rx="0.833"
             transform="translate(0,2.775)"
             style="fill:#dde3e9"
             id="rect548"
             x="0"
             y="0" />
        </g>
        <g
           data-name="Check"
           transform="translate(54.326,3.822)"
           id="g556">
          <circle
             data-name="Background"
             cx="1.992"
             cy="1.992"
             r="1.992"
             style="fill:#dde3e9"
             id="circle552" />
          <circle
             data-name="Indicator"
             cx="0.85399997"
             cy="0.85399997"
             r="0.85399997"
             transform="translate(1.139,1.139)"
             style="fill:#f2f2f2"
             id="circle554" />
        </g>
      </g>
      <g
         data-name="Row"
         transform="translate(5.68,42.603)"
         id="g574">
        <rect
           data-name="Container"
           width="63"
           height="11"
           rx="4"
           transform="translate(-0.059,-0.33)"
           style="fill:#ffffff"
           id="rect560"
           x="0"
           y="0" />
        <g
           data-name="Text Stuff"
           transform="translate(1.682,2.771)"
           id="g566">
          <rect
             data-name="Label"
             width="47.534"
             height="1.665"
             rx="0.833"
             style="fill:#dde3e9"
             id="rect562"
             x="0"
             y="0" />
          <rect
             data-name="Label"
             width="31.907"
             height="1.665"
             rx="0.833"
             transform="translate(0,2.775)"
             style="fill:#dde3e9"
             id="rect564"
             x="0"
             y="0" />
        </g>
        <g
           data-name="Check"
           transform="translate(54.326,2.999)"
           id="g572">
          <circle
             data-name="Background"
             cx="1.992"
             cy="1.992"
             r="1.992"
             style="fill:#dde3e9"
             id="circle568" />
          <circle
             data-name="Indicator"
             cx="0.85399997"
             cy="0.85399997"
             r="0.85399997"
             transform="translate(1.139,1.139)"
             style="fill:#afb9c5"
             id="circle570" />
        </g>
      </g>
      <g
         data-name="Row"
         transform="translate(5.68,81.42)"
         id="g590">
        <rect
           data-name="Container"
           width="63"
           height="12"
           rx="4"
           transform="translate(-0.059,-0.147)"
           style="fill:#ffffff"
           id="rect576"
           x="0"
           y="0" />
        <g
           data-name="Text Stuff"
           transform="translate(1.682,4.088)"
           id="g582">
          <rect
             data-name="Label"
             width="47.534"
             height="1.665"
             rx="0.833"
             style="fill:#dde3e9"
             id="rect578"
             x="0"
             y="0" />
          <rect
             data-name="Label"
             width="31.907"
             height="1.665"
             rx="0.833"
             transform="translate(0,2.775)"
             style="fill:#dde3e9"
             id="rect580"
             x="0"
             y="0" />
        </g>
        <g
           data-name="Check"
           transform="translate(54.326,4.316)"
           id="g588">
          <circle
             data-name="Background"
             cx="1.992"
             cy="1.992"
             r="1.992"
             style="fill:#dde3e9"
             id="circle584" />
          <circle
             data-name="Indicator"
             cx="0.85399997"
             cy="0.85399997"
             r="0.85399997"
             transform="translate(1.139,1.139)"
             style="fill:#f2f2f2"
             id="circle586" />
        </g>
      </g>
      <g
         data-name="Row"
         transform="translate(5.68,69.112)"
         id="g606">
        <rect
           data-name="Container"
           width="63"
           height="10"
           rx="4"
           transform="translate(-0.059,0.161)"
           style="fill:#ffffff"
           id="rect592"
           x="0"
           y="0" />
        <g
           data-name="Text Stuff"
           transform="translate(1.682,3.018)"
           id="g598">
          <rect
             data-name="Label"
             width="47.534"
             height="1.665"
             rx="0.833"
             style="fill:#dde3e9"
             id="rect594"
             x="0"
             y="0" />
          <rect
             data-name="Label"
             width="31.907"
             height="1.665"
             rx="0.833"
             transform="translate(0,2.775)"
             style="fill:#dde3e9"
             id="rect596"
             x="0"
             y="0" />
        </g>
        <g
           data-name="Check"
           transform="translate(54.326,3.246)"
           id="g604">
          <circle
             data-name="Background"
             cx="1.992"
             cy="1.992"
             r="1.992"
             style="fill:#dde3e9"
             id="circle600" />
          <circle
             data-name="Indicator"
             cx="0.85399997"
             cy="0.85399997"
             r="0.85399997"
             transform="translate(1.139,1.139)"
             style="fill:#f2f2f2"
             id="circle602" />
        </g>
      </g>
      <g
         data-name="Row"
         transform="translate(5.68,55.858)"
         id="g622">
        <rect
           data-name="Container"
           width="63"
           height="10"
           rx="4"
           transform="translate(-0.059,0.415)"
           style="fill:#ffffff"
           id="rect608"
           x="0"
           y="0" />
        <g
           data-name="Text Stuff"
           transform="translate(1.682,2.895)"
           id="g614">
          <rect
             data-name="Label"
             width="47.534"
             height="1.665"
             rx="0.833"
             style="fill:#dde3e9"
             id="rect610"
             x="0"
             y="0" />
          <rect
             data-name="Label"
             width="31.907"
             height="1.665"
             rx="0.833"
             transform="translate(0,2.775)"
             style="fill:#dde3e9"
             id="rect612"
             x="0"
             y="0" />
        </g>
        <g
           data-name="Check"
           transform="translate(54.326,3.122)"
           id="g620">
          <circle
             data-name="Background"
             cx="1.992"
             cy="1.992"
             r="1.992"
             style="fill:#dde3e9"
             id="circle616" />
          <circle
             data-name="Indicator"
             cx="0.85399997"
             cy="0.85399997"
             r="0.85399997"
             transform="translate(1.139,1.139)"
             style="fill:#f2f2f2"
             id="circle618" />
        </g>
      </g>
    </g>
  </g>
  <g
     transform="translate(162,133.414)"
     id="g638">
    <rect
       width="2"
       height="6"
       rx="1"
       transform="translate(0,10.587)"
       style="fill:#b3b3b3"
       id="rect628"
       x="0"
       y="0" />
    <rect
       data-name="Value"
       width="3"
       height="12"
       rx="1.5"
       transform="translate(3,4.587)"
       style="fill:#b3b3b3"
       id="rect630"
       x="0"
       y="0" />
    <rect
       data-name="Value"
       height="14"
       transform="translate(9,2.587)"
       style="fill:#dde3e9"
       id="rect632"
       width="0"
       x="0"
       y="0" />
    <rect
       data-name="Value"
       width="2"
       height="12"
       rx="1"
       transform="translate(11,4.587)"
       style="fill:#b3b3b3"
       id="rect634"
       x="0"
       y="0" />
    <rect
       data-name="Value"
       width="2"
       height="17"
       rx="1"
       transform="translate(16,-0.413)"
       style="fill:#b3b3b3"
       id="rect636"
       x="0"
       y="0" />
  </g>
  <path
     data-name="Value"
     d="m 195.182,153.558 a 2.3,2.3 0 1 1 -1.68,-3.858 v -4.255 a 6.588,6.588 0 0 0 -6.589,6.547 6.588,6.588 0 0 0 6.589,6.547 6.511,6.511 0 0 0 4.8,-2.073 z"
     style="fill:#b3b3b3"
     id="path640" />
  <path
     data-name="Value"
     d="m 193.46,145.445 v 4.255 a 2.291,2.291 0 0 1 2.291,2.292 h 4.256 a 6.567,6.567 0 0 0 -6.547,-6.547 z"
     style="fill:#afb9c5"
     id="path642" />
  <path
     data-name="Value"
     d="m 195.758,151.992 a 2.271,2.271 0 0 1 -0.875,1.791 l 2.618,3.332 a 6.492,6.492 0 0 0 2.505,-5.123 z"
     style="fill:#c5cfd6"
     id="path644" />
  <g
     data-name="Mask Group 67"
     clip-path="url(#74lrkztwqa)"
     id="g650"
     transform="translate(-18,-616)"
     style="fill:#999999">
    <path
       data-name="Leaf Bottom"
       d="m -80.342,150.631 a 26.913,26.913 0 0 1 -0.584,3.476 10.312,10.312 0 0 0 0.584,-3.476 z m -6.323,-27.237 a 66.827,66.827 0 0 0 -13.821,-18.8 c 1.115,-4.022 11.961,-10.3 5.1,-13.63 -3.641,-1.758 -7.095,1.653 -7.688,5.106 -0.407,2.373 0.558,5.277 1.537,7.509 q -2.63,-2.507 -5.434,-4.836 a 271.013,271.013 0 0 0 -7.867,-6.269 c 3.981,-4.121 7.353,-15.486 1.644,-17.019 -8.431,-2.256 -3.636,12.757 -2.907,15.58 a 0.452,0.452 0 0 0 0.379,-0.165 c -0.033,0.264 -0.072,0.546 -0.123,0.831 -5.081,-3.9 -10.231,-7.708 -15.227,-11.709 a 21.712,21.712 0 0 0 1.537,-2.248 24.346,24.346 0 0 0 2.975,-4.816 c 1.2,-2.743 2.264,-7.074 -1.369,-8.461 -3.951,-1.513 -5.53,3.405 -5.405,6.284 a 37.98,37.98 0 0 0 1.12,5.788 c 0.121,0.6 -0.076,3.363 0.7,2.14 a 5.834,5.834 0 0 0 0.026,0.975 q -1.345,-1.083 -2.674,-2.189 a 1.022,1.022 0 0 0 0.057,-0.335 1,1 0 0 0 -1.484,-0.862 q -1.755,-1.49 -3.472,-3.03 a 480.65,480.65 0 0 1 -7.318,-6.721 c 0.48,-0.454 0.249,-1.037 0.695,-1.516 0.446,-0.479 1.355,-0.777 1.884,-1.227 a 13.256,13.256 0 0 0 3.151,-4.3 c 1.24,-2.583 2.737,-7.945 -1.338,-8.934 -4.2,-1.021 -6.031,4.161 -6.129,7.346 a 80.475,80.475 0 0 0 1.2,8.121 c -4.52,-4.268 -8.979,-8.708 -13.046,-13.249 1.157,-0.071 4.314,-2.595 4.943,-3.271 1.536,-1.65 3.925,-5.245 0.991,-6.929 -2.608,-1.493 -5.594,1.021 -6.552,3.364 a 31.934,31.934 0 0 0 -0.563,5.5 122.66,122.66 0 0 1 -4.808,-5.827 q -1.51,-1.95 -2.845,-4.01 a 1.88,1.88 0 0 0 0.528,-0.573 c 4.17,-0.928 9.19,-7.722 4.129,-9.732 -2.41,-0.956 -4.844,1.4 -5.9,3.284 a 24.136,24.136 0 0 0 -0.733,3.773 77.983,77.983 0 0 1 -6.294,-14.437 0.914,0.914 0 0 0 0.672,-0.883 12.509,12.509 0 0 0 4.853,-4.605 c 0.813,-1.427 2.242,-4.664 -0.4,-5.295 -3.441,-0.821 -5.3,4.425 -5.441,6.969 -0.017,0.3 0.029,1.149 0.082,1.931 a 1.147,1.147 0 0 0 -0.353,0.025 111.409,111.409 0 0 1 -2.4,-9.431 c 1.818,-0.687 1.629,-10.341 0.325,-11.649 -2.914,-2.929 -4.621,1.61 -4.35,3.948 a 15.451,15.451 0 0 0 3.337,7.363 c 0.174,0.228 0.127,0.219 0.151,-0.113 a 0.659,0.659 0 0 0 0.179,0.361 41.647,41.647 0 0 0 0.067,4.243 97.532,97.532 0 0 0 1.853,10.977 q 0.3,1.316 0.664,2.608 a 21.63,21.63 0 0 0 -4.418,-2.5 c -2.083,-0.8 -5.27,-1.613 -7.21,0.025 a 3.363,3.363 0 0 0 -0.121,5.059 c 1.727,1.725 4.7,1.5 6.916,1.212 1,-0.132 6.348,-0.838 5.03,-1.644 a 4.361,4.361 0 0 1 0.534,0.22 q 0.21,0.631 0.438,1.257 c -0.03,0.02 -0.056,0.041 -0.089,0.061 0.036,-0.018 0.06,-0.036 0.092,-0.054 a 48.847,48.847 0 0 0 6.172,11.751 11.679,11.679 0 0 0 -2.818,-0.592 c -2.82,-0.206 -8.6,2.261 -5.27,5.8 3.192,3.393 7.669,-0.658 11.051,-1.36 a 158.9,158.9 0 0 0 11.474,12.656 0.907,0.907 0 0 0 -0.533,0.49 c -1.574,-0.692 -3.23,-1.714 -4.665,-1.939 -2.07,-0.324 -6.283,-0.367 -7.734,1.532 -1.786,2.336 0.351,4.047 2.622,4.358 3.294,0.453 7.479,-1.351 10.56,-2.583 a 1.042,1.042 0 0 0 0.968,-0.377 l 0.2,-0.077 c 4.093,4.022 8.327,7.9 12.532,11.684 h -0.13 a 10.9,10.9 0 0 0 -3.451,-1.35 c -2.838,-0.532 -6.135,-0.364 -8.3,1.767 -2.165,2.131 -2.776,5.667 -0.314,7.8 4.928,4.259 11.3,-6.368 13.64,-6.92 4.271,3.806 8.761,7.335 13.314,10.786 a 7.82,7.82 0 0 0 -1.544,-0.23 c -4.3,-0.184 -14.054,5.539 -8.538,10.384 4.807,4.221 9.644,-4.637 13.17,-7.83 4.288,3.213 8.6,6.4 12.8,9.73 a 11.778,11.778 0 0 0 -6.65,0.388 c -2.39,0.856 -6.212,2.879 -4.505,6.054 1.736,3.229 6.362,1.478 8.758,0.3 1.307,-0.642 3.884,-2.716 6.195,-3.653 a 80.3,80.3 0 0 1 17.225,19.546 69.832,69.832 0 0 1 6.826,15.083 c 1.074,3.362 3.138,8.994 3.02,13.448 1.211,-8.967 -2.391,-19.472 -6.085,-27.237 z M -180.742,17.245 c -0.358,0 -1.7,-3.6 -2.122,-4.134 a 12.094,12.094 0 0 0 -4.786,-3.444 c -2.94,-1.261 -6.674,0.573 -4.883,4.218 1.429,2.91 5.3,3.5 8.655,3.5 a 44.503,44.503 0 0 0 3.136,-0.14 z"
       transform="rotate(122,-188.545,440.685)"
       style="opacity:0.349;fill:#b3b3b3"
       id="path648" />
  </g>
  <g
     data-name="Group 11"
     id="g684"
     transform="translate(-18,-616)">
    <path
       d="M 0,34.729 3.915,16.408 A 12.918,12.918 0 0 1 0.5,7.148 c 0.713,-10.181 14.83,-7.941 17.576,-2.803 2.746,5.138 2.42,18.173 -1.129,19.091 -1.415,0.366 -4.431,-0.531 -7.5,-2.388 l 1.926,13.68 z"
       transform="translate(77.313,634.813)"
       style="fill:#c69f89"
       id="path652" />
    <path
       d="m 80.354,653.513 c -1.427,-6.375 -5.494,-10.721 -4.873,-13.57 a 4.839,4.839 0 0 1 3.311,-3.544 c 0,0 1.391,-5.65 8.973,-4.806 7.582,0.844 12.209,4 10.211,10.96 -1.837,0 -4.055,-0.667 -7.121,0.476 -1.459,0.544 -2.088,3.373 -2.088,3.373 h -1.386 c 0,0 -2.017,-3.357 -3.978,-2.468 -1.961,0.889 -0.892,4.323 -0.892,4.323 l -0.683,5.256 z"
       id="path654" />
    <path
       data-name="Seat Stuff"
       d="M 13.09,0 H 49.7 l 4.8,58.991 H 0 Z"
       style="fill:#b3b3b3"
       transform="translate(43.667,729.009)"
       id="path656" />
    <path
       data-name="Seat Stuff"
       d="m 13.09,0 h 11.26 l 6.739,58.991 H 0 Z"
       transform="translate(43.667,729.009)"
       id="path658" />
    <path
       d="m 0.672,60.7 c 0,0 -1.231,-22.179 -0.361,-31.817 0.993,-11 2.2,-20.554 2.913,-24.022 C 4.917,-3.409 16.3,0.445 16.3,4.878 16.3,14.942 6.655,61.186 6.655,61.186 Z"
       transform="rotate(20,-1961.548,705.7)"
       style="fill:#b28b67"
       id="path660" />
    <path
       data-name="LegLower"
       d="M 0.85,65.4 C 0.376,59.385 -0.505,38.55 0.376,28.907 1.383,17.9 2.6,8.341 3.318,4.871 5.02,-3.4 16.4,0.436 16.39,4.871 16.377,14.94 7.224,62.393 6.746,65.393 6.268,68.393 1.148,69.185 0.85,65.4 Z"
       transform="translate(129.163,718.067)"
       style="fill:#b28b67"
       id="path662" />
    <path
       data-name="LegLower"
       d="M 0,53.171 2.366,4.9 C 4.1,-3.441 18.91,0.451 18.909,4.924 c 0,10.155 -6.039,45.227 -6.04,48.253 z"
       transform="rotate(20,-1960.72,701.014)"
       style="fill:#191847"
       id="path664" />
    <path
       d="M 2.158,2.268 A 0.965,0.965 0 0 0 0.921,2.918 L 0,6.162 A 30.991,30.991 0 0 0 0.435,9.97 h 27.209 c 0,0 1.056,-3.506 -1.225,-3.785 -2.281,-0.279 -3.8,-0.5 -3.8,-0.5 L 9.976,0.042 A 0.482,0.482 0 0 0 9.334,0.3 L 8.521,2.271 A 10.934,10.934 0 0 1 5.083,3.258 Z"
       transform="rotate(30,-1376.984,574.206)"
       style="fill:#191847"
       id="path666" />
    <path
       data-name="shoe"
       d="M 2.12,2.568 A 0.947,0.947 0 0 0 0.9,3.21 L 0,6.409 a 30.676,30.676 0 0 0 0.427,3.756 h 26.728 c 0,0 1.042,-3.458 -1.2,-3.733 -2.242,-0.275 -3.729,-0.5 -3.729,-0.5 L 9.8,0.373 A 0.473,0.473 0 0 0 9.169,0.626 l -0.8,1.945 A 10.71,10.71 0 0 1 4.992,3.544 Z"
       transform="translate(128.019,777.836)"
       style="fill:#191847"
       id="path668" />
    <path
       data-name="Leg and Butt"
       d="m 80.926,17.333 c 0,12.639 -5.979,42.12 -5.983,44.9 l -12.864,0.01 c 0,0 2.824,-39.459 2,-39.884 -0.824,-0.425 -33.67,3.292 -43.522,3.292 C 6.354,25.654 0.477,16.66 0,0 h 28.143 c 5.73,0.616 35.619,6.668 46.719,8.748 4.752,0.891 6.064,5.103 6.064,8.585 z"
       transform="translate(65.94,709.028)"
       style="fill:#2f3676"
       id="path670" />
    <path
       d="M 1.108,0 18.6,6.793 a 40.658,40.658 0 0 1 11,1.307 c 0.781,0.4 1.85,1.358 -0.812,1.862 -2.662,0.504 -5.439,1.153 -5.562,2.14 -0.123,0.987 1.738,1.624 1.33,3.021 q -0.408,1.4 -8.474,-4.163 L 0,8.867 Z"
       transform="rotate(-38,1015.748,165.899)"
       style="fill:#c69f89"
       id="path672" />
    <path
       data-name="Arm"
       d="m 1.081,0 17.486,6.851 a 40.6,40.6 0 0 1 11,1.344 c 0.781,0.406 1.852,1.365 -0.805,1.862 -2.657,0.497 -5.429,1.139 -5.549,2.126 -0.12,0.987 1.74,1.631 1.337,3.028 q -0.4,1.4 -8.476,-4.193 L 0,8.875 Z"
       transform="rotate(14.98,-2569.917,767.43)"
       style="fill:#c69f89"
       id="path674" />
    <path
       data-name="Coat Back"
       d="m 6.394,0 c 11.939,12.753 26.494,21.082 46.341,28.476 l -4.4,8.835 C 27.866,35.355 16.921,33.8 8.329,21.028 6.173,17.823 2.312,6.8 0,1.074 Z"
       transform="rotate(14.98,-2465.051,643.196)"
       style="fill:#51814f"
       id="path676" />
    <path
       d="m 0,54.234 h 36.49 c 0,0 -12.4,-37.96 -12.667,-52.107 C 23.813,1.646 22.929,0.8 22.538,0.91 18.245,2.127 13.35,0 13.35,0 4.7,13.967 1.708,31.163 0,54.234 Z"
       transform="translate(65.94,659.075)"
       style="fill:#b3ff80"
       id="path678" />
    <path
       data-name="Clothes Jacket"
       d="M 0.674,65.94 H 20.13 c 16.1,0 12.027,-32.908 1.1,-65.94 H 15.576 A 2.568,2.568 0 0 0 13.234,1.606 C 5.7,16.186 -2.416,45.092 0.674,65.94 Z"
       transform="translate(61.167,659.075)"
       style="fill:#70ae6e"
       id="path680" />
    <path
       data-name="Clothes Back"
       d="M 0.426,4.3 C 10.8,4.282 28.157,6.476 48.252,0 l 1.932,9.692 C 32.913,20.844 15.388,29.061 0.857,24.32 -1.575,23.527 2.12,16.622 0.426,4.3 Z"
       transform="translate(81.152,654.794)"
       style="fill:#70ae6e"
       id="path682" />
  </g>
</svg>
