<?xml version="1.0" encoding="UTF-8" standalone="no"?>
<svg
   width="162"
   height="173"
   viewBox="0 0 162 173"
   version="1.1"
   id="svg207"
   sodipodi:docname="newsfeed.svg"
   inkscape:version="1.2.2 (732a01da63, 2022-12-09)"
   xmlns:inkscape="http://www.inkscape.org/namespaces/inkscape"
   xmlns:sodipodi="http://sodipodi.sourceforge.net/DTD/sodipodi-0.dtd"
   xmlns="http://www.w3.org/2000/svg"
   xmlns:svg="http://www.w3.org/2000/svg">
  <sodipodi:namedview
     id="namedview209"
     pagecolor="#ffffff"
     bordercolor="#000000"
     borderopacity="0.25"
     inkscape:showpageshadow="2"
     inkscape:pageopacity="0.0"
     inkscape:pagecheckerboard="0"
     inkscape:deskcolor="#d1d1d1"
     showgrid="false"
     inkscape:zoom="2.9595376"
     inkscape:cx="80.924805"
     inkscape:cy="86.5"
     inkscape:window-width="1366"
     inkscape:window-height="715"
     inkscape:window-x="-8"
     inkscape:window-y="-8"
     inkscape:window-maximized="1"
     inkscape:current-layer="g203" />
  <defs
     id="defs113">
    <clipPath
       id="6m9gncotaa">
      <rect
         data-name="Rectangle 4445"
         width="162"
         height="173"
         rx="20"
         transform="translate(196 423)"
         style="fill:#d05591"
         id="rect110" />
    </clipPath>
  </defs>
  <g
     data-name="Group 2233"
     id="g205">
    <g
       data-name="Mask Group 3"
       style="clip-path:url(#6m9gncotaa)"
       transform="translate(-196 -423)"
       clip-path="url(#6m9gncotaa)"
       id="g203">
      <rect
         data-name="Rectangle 4456"
         width="184"
         height="250.89999"
         rx="20"
         style="fill:#ffffff;stroke-width:1.13439"
         id="rect115"
         x="185"
         y="412" />
      <g
         data-name="Plant Left"
         style="opacity:0.25"
         id="g129"
         transform="matrix(1,0,0,1.2866656,0,-118.10649)">
        <path
           d="m 13.9,5 c 0.9,-1.28 2.561,-4.524 3.822,-4.98 0.812,-0.294 0.575,2.747 0.585,3.327 a 48.6,48.6 0 0 1 -0.449,6.7 26.165,26.165 0 0 1 -4.254,11 13.885,13.885 0 0 1 -4.258,4.631 c -0.839,0.5 -1.847,0.589 -2.675,1.024 -0.964,0.506 -0.439,0.1 -0.874,1.1 A 22.909,22.909 0 0 0 4.721,32.486 C 3.439,39.318 0.334,75.446 0.872,82.4 0.92,83.016 0.061,83.164 0.018,82.411 -0.21,78.421 1.763,50.8 2.758,41.768 3.753,32.736 4.758,24.755 5.77,21.63 A 84.6,84.6 0 0 1 11.05,9.744 42.042,42.042 0 0 1 13.9,5 Z"
           transform="rotate(-2,14494.58,-7989.753)"
           style="fill:#de8787"
           id="path117" />
        <path
           data-name="Leaf"
           d="M 21.4,0.486 C 23.735,-1.226 26.258,2 24.149,3.715 A 2.113,2.113 0 0 1 21.078,3.536 c -0.445,0.543 -0.862,1.111 -1.263,1.59 a 78.957,78.957 0 0 0 -3.477,4.489 c -2.291,3.181 -4.254,6.542 -6.306,9.841 C 8.006,22.713 6,25.986 4.161,29.324 2.605,32.153 0.532,35.481 0,38.582 0.808,32.005 3.873,25.682 7.524,19.882 11.145,14.132 15.3,7.852 20.907,3.314 A 1.986,1.986 0 0 1 21.4,0.486 Z"
           transform="rotate(-2,15888.697,-7989.805)"
           style="fill:#de8787"
           id="path119" />
        <path
           data-name="Leaf"
           d="m 0.408,0.007 c 1.3,0.255 3.436,3.206 4.511,4.33 a 42.109,42.109 0 0 1 3.53,4.252 71.914,71.914 0 0 1 6.245,10.186 94.683,94.683 0 0 1 6.949,18.084 74.6,74.6 0 0 1 2.108,11.862 c 0.075,0.751 0.863,6.541 -0.272,6.7 -1.02,0.141 -0.705,-4.4 -0.755,-5.014 A 80.157,80.157 0 0 0 18.182,30.107 23.139,23.139 0 0 0 16.4,25.636 c -0.582,-0.927 0,-0.6 -1.026,-0.954 -0.878,-0.3 -1.878,-0.228 -2.777,-0.6 A 13.813,13.813 0 0 1 7.71,20.166 26.337,26.337 0 0 1 1.836,9.946 49.208,49.208 0 0 1 0.353,3.39 C 0.273,2.814 -0.432,-0.158 0.408,0.007 Z"
           transform="rotate(-2,15456.05,-7318.657)"
           style="fill:#de8787"
           id="path121" />
        <path
           data-name="Leaf"
           d="m 3,2.924 a 118.2,118.2 0 0 1 11.555,27.361 c 1.58,5.744 2.684,11.638 3.782,17.49 1.7,9.06 3.307,18.12 3.764,27.342 0.46,9.275 1.37,19.972 -1.667,28.905 1.517,-9.07 0.073,-18.723 -0.183,-27.849 -0.122,-4.357 -0.476,-8.67 -0.941,-13 -0.451,-4.2 -1.187,-8.383 -1.873,-12.551 q -0.5,-3.045 -1.042,-6.083 c -0.107,-0.6 -0.152,-2.4 -0.535,-2.811 -0.383,-0.411 -2.355,-0.585 -2.973,-0.89 A 15.961,15.961 0 0 1 9.435,38.429 27.573,27.573 0 0 1 4.356,32.076 34.263,34.263 0 0 1 0,14.28 C 0.015,13.1 1.919,0.343 1.154,0.168 Q 1.223,0.087 1.285,0 2.154,1.454 3,2.924 Z"
           transform="rotate(-2,13969.774,-7365.686)"
           style="fill:#de8787"
           id="path123" />
        <path
           data-name="Leaf"
           d="m 35.138,0.829 c 0.076,-0.109 0.569,-0.87 0.321,-0.821 0.506,-0.1 -0.7,0.839 0.565,0.263 -0.6,0.565 -0.253,1.3 -0.245,2.06 A 18.45,18.45 0 0 1 35.352,6 a 25.158,25.158 0 0 1 -1.71,5.545 24.847,24.847 0 0 1 -8.166,10.021 16.376,16.376 0 0 1 -5.38,2.153 c -1.242,0.348 -1.34,0.99 -2,2.2 -1.372,2.51 -2.721,5.011 -3.931,7.606 -1.445,3.1 -2.848,6.2 -4.172,9.353 A 149.274,149.274 0 0 0 0,75.884 C -0.047,69.173 1.506,62.262 3.464,55.866 A 119.475,119.475 0 0 1 8.728,42.266 17.207,17.207 0 0 0 10.139,38.614 6.728,6.728 0 0 0 9.646,36.1 26.292,26.292 0 0 1 9.607,25.415 c 0.754,-3.79 2.935,-5.549 6.624,-6.085 1.349,-0.2 3.064,-0.124 4.3,-0.7 1.348,-0.626 1.9,-2.685 2.67,-4.007 a 54.5,54.5 0 0 1 7.313,-9.947 23.722,23.722 0 0 1 2.5,-2.3 12.219,12.219 0 0 0 2.124,-1.547 z"
           transform="rotate(-2,14896.565,-7978.514)"
           style="fill:#de8787"
           id="path125" />
        <path
           d="M 0.8,1.221 A 1.066,1.066 0 0 1 1.856,0 H 14.948 A 1.066,1.066 0 0 1 16,1.221 l -1.009,6.862 a 4.263,4.263 0 0 1 -4.218,3.641 H 6.031 A 4.263,4.263 0 0 1 1.814,8.083 Z"
           transform="rotate(-2,16860.303,-7782.078)"
           style="fill:#de8787"
           id="path127" />
      </g>
      <g
         data-name="Group 8"
         id="g167"
         transform="matrix(1,0,0,1.2866656,0,-118.10649)">
        <path
           d="M 0,25.706 2.909,12.145 A 9.54,9.54 0 0 1 0.372,5.291 C 0.9,-2.245 11.391,-0.587 13.432,3.216 15.473,7.019 15.232,16.667 12.593,17.347 11.541,17.618 9.301,16.954 7.02,15.58 l 1.432,10.126 z"
           transform="translate(221.103,481.497)"
           style="fill:#b28b67"
           id="path131" />
        <path
           d="m 223.364,495.339 c -1.061,-4.719 -4.083,-7.939 -3.621,-10.045 a 3.59,3.59 0 0 1 2.46,-2.623 c 0,0 1.033,-4.182 6.667,-3.558 5.634,0.624 9.073,2.964 7.588,8.112 -1.365,0 -3.013,-0.494 -5.292,0.352 -1.085,0.4 -1.551,2.5 -1.551,2.5 h -1.03 c 0,0 -1.499,-2.487 -2.956,-1.829 -1.457,0.658 -0.662,3.2 -0.662,3.2 l -0.507,3.891 z"
           id="path133" />
        <path
           d="M 35.765,43.665 H 16 a 16,16 0 0 1 -16,-16 V 16 A 16,16 0 0 1 16,0 h 19.765 a 16,16 0 0 1 16,16 v 11.666 a 16,16 0 0 1 -16,16 z M 13.86,9.86 a 4,4 0 0 0 -4,4 v 15.945 a 4,4 0 0 0 4,4 h 24.045 a 4,4 0 0 0 4,-4 V 13.86 a 4,4 0 0 0 -4,-4 z"
           transform="translate(191.875,552.221)"
           style="fill:#c5cfd6"
           id="path135" />
        <path
           d="M 23.3,41.2 Q 12.883,28.483 9.2,22.345 C 5.005,15.337 1.568,9.1 0.484,6.72 -2.1,1.041 6.438,-1.619 8.371,1.03 q 4.388,6.015 18.744,37.852 z"
           transform="translate(255.261,551.926)"
           style="fill:#b28b67"
           id="path137" />
        <path
           data-name="LegLower"
           d="M 13.3,40.5 0.375,7.971 C -2.388,2.042 10.957,-1.855 12.988,0.9 17.6,7.169 28.558,31.881 29.932,33.747 Z"
           transform="translate(251.035,550.165)"
           style="fill:#465d7c"
           id="path139" />
        <path
           data-name="LegLower"
           d="M 0.635,36.858 C 0.281,32.42 -0.378,17.06 0.281,9.95 0.471,7.907 0.67,5.931 0.871,4.078 c 0.6,-5.508 10.81,-5.334 10,-0.1 C 8.851,17.009 5.3,35.272 5.041,36.85 4.684,39.062 0.858,39.646 0.635,36.858 Z"
           transform="rotate(39,-657.46,634.236)"
           style="fill:#b28b67"
           id="path141" />
        <path
           d="M 1.575,1.655 A 0.7,0.7 0 0 0 0.675,2.13 L 0,4.5 a 22.622,22.622 0 0 0 0.317,2.78 h 19.862 c 0,0 0.774,-2.559 -0.894,-2.764 C 17.617,4.311 16.514,4.147 16.514,4.147 L 7.282,0.031 A 0.352,0.352 0 0 0 6.813,0.218 L 6.22,1.657 a 7.981,7.981 0 0 1 -2.51,0.72 z"
           transform="rotate(30,-967.386,721.338)"
           style="fill:#e4e4e4"
           id="path143" />
        <path
           data-name="shoe"
           d="m 1.575,1.987 a 0.7,0.7 0 0 0 -0.9,0.475 L 0,4.83 a 22.622,22.622 0 0 0 0.317,2.78 h 19.862 c 0,0 0.774,-2.559 -0.894,-2.764 C 17.617,4.641 16.514,4.477 16.514,4.477 L 7.282,0.363 A 0.352,0.352 0 0 0 6.813,0.55 L 6.22,1.989 a 7.981,7.981 0 0 1 -2.51,0.72 z"
           transform="translate(274.981,589.39)"
           style="fill:#e4e4e4"
           id="path145" />
        <path
           data-name="Leg and Butt"
           d="m 33.7,23.223 c 0,0 -16.109,-2.623 -21.58,-3.589 C 1.723,17.8 -1.308,12.206 0.484,0 h 19.155 c 3.8,1.1 31.775,13.582 31.775,13.582 3.355,1.666 2.73,6.577 2.117,8.194 -0.038,0.1 -16.969,29.077 -16.969,29.077 L 20.892,40.871 33.729,24.4 c 0,0 0.509,-1.025 -0.029,-1.177 z"
           transform="translate(213.061,536.538)"
           style="fill:#5b7aa3"
           id="path147" />
        <path
           d="m 2.8,0 10.787,8.825 a 30.236,30.236 0 0 1 7.465,3.464 c 0.459,0.465 1,1.385 -1,1.126 -2,-0.259 -4.1,-0.441 -4.41,0.227 -0.31,0.668 0.856,1.547 0.25,2.438 q -0.606,0.891 -5.028,-4.891 L 0,6 Z"
           transform="rotate(-3,10282.234,-4418.617)"
           style="fill:#b28b67"
           id="path149" />
        <path
           data-name="Arm"
           d="m 17.9,0 c 0,0 -7.675,19.228 -9.12,21.061 -0.706,0.9 -5,3.161 -7.909,4.36 -1.166,0.481 -0.934,1.463 -0.6,1.782 2.715,2.593 5.257,0.75 8.23,0.066 3.256,-0.749 2.179,3.091 4.751,2.539 -0.378,-1.77 -1.425,-5.137 -0.208,-6.943 C 13.855,21.662 25.1,1.558 25.1,1.558 Z"
           transform="rotate(-12.04,2642.395,-621.958)"
           style="fill:#b28b67"
           id="path151" />
        <path
           data-name="Coat Back"
           d="M 0,0.786 2.988,0 C 15.093,8.738 21.35,27.012 36.012,35.7 l -2.96,4.406 C 8.859,39.237 0.934,16.972 0,0.786 Z"
           transform="rotate(5.13,-5622.155,2856.122)"
           style="fill:#e58b1e"
           id="path153" />
        <path
           d="m 0,40.144 h 26.943 c 1.231,0 1,-1.778 0.821,-2.675 C 25.71,27.116 17.692,15.956 17.692,1.219 L 9.92,0 C 3.492,10.338 1.269,23.067 0,40.144 Z"
           transform="translate(212.652,499.457)"
           style="fill:#dde3e9"
           id="path155" />
        <path
           d="m 13.173,8.67 c 0,0 -8.66,5.585 -11.5,0.459 -2.84,-5.126 -1.816,-7.947 1.22,-8.875 3.036,-0.928 5.743,0.983 10.579,0.983 4.836,0 -0.299,7.433 -0.299,7.433 z"
           transform="translate(208.515,498.219)"
           style="fill:#fcaf58"
           id="path157" />
        <path
           data-name="Clothes Body"
           d="M 0,47.539 H 24.253 C 28.948,35.674 18.477,0.188 18.477,0.188 L 15.178,0 C 9.428,10.369 1.135,30.412 0,47.539 Z"
           transform="translate(206.665,499.457)"
           style="fill:#fcaf58"
           id="path159" />
        <path
           data-name="Clothes Front"
           d="m 21.726,0 c 0,0 -22.715,20.776 -21.658,54.934 h 5.778 c 7.531,-13.12 18.167,-52.9 18.167,-52.9 z"
           transform="translate(200.259,499.457)"
           style="fill:#ff9b21"
           id="path161" />
        <path
           d="m 4.05,0 c 0,0 0.092,20.824 4.05,27.467 H 0 Z"
           transform="translate(209.483,519.529)"
           style="fill:#ff7f2a"
           id="path163" />
        <path
           data-name="Clothes Front"
           d="m 21.726,0 c 0,0 -22.715,20.776 -21.658,54.934 h 5.778 c 7.531,-13.12 18.167,-52.9 18.167,-52.9 z"
           transform="translate(200.259,499.457)"
           style="fill:#ff7f2a"
           id="path165" />
      </g>
      <g
         data-name="Group 9"
         id="g191"
         transform="matrix(1,0,0,1.2866656,0,-118.10649)">
        <path
           data-name="Head"
           d="m 0,0 3.042,14.171 a 9.967,9.967 0 0 0 -2.653,7.162 c 0.553,7.875 11.52,6.142 13.653,2.168 2.133,-3.974 1.88,-14.056 -0.877,-14.767 -1.1,-0.283 -3.442,0.411 -5.826,1.847 L 8.835,0 Z"
           transform="rotate(165.02,136.636,259.875)"
           style="fill:#d4a181"
           id="path169" />
        <path
           data-name="hair"
           d="m 331.166,465.377 a 4.26,4.26 0 0 0 2.787,-3.272 11.215,11.215 0 0 0 -0.1,-5.705 c -0.036,-0.138 -0.073,-0.278 -0.12,-0.416 a 22.476,22.476 0 0 1 3.316,1.62 21.815,21.815 0 0 0 3.58,1.723 6.448,6.448 0 0 0 3.8,0.207 4.469,4.469 0 0 0 2.952,-2.845 7.225,7.225 0 0 0 0.231,-4.42 5.774,5.774 0 0 0 -0.741,-1.685 4.382,4.382 0 0 0 -1.252,-1.268 4.138,4.138 0 0 0 -1.766,-0.64 5.943,5.943 0 0 0 -2.284,0.198 c -5.023,1.347 -7.29,2.732 -9.141,4.397 a 7.157,7.157 0 0 0 -2.616,-2.381 2.962,2.962 0 0 0 -1.01,-0.375 4.117,4.117 0 0 0 -0.79,-0.114 18.522,18.522 0 0 0 -5.459,0.523 c -0.281,0.066 -0.563,0.136 -0.835,0.209 l -0.31,0.083 a 3.681,3.681 0 1 0 -2.795,4.566 18.525,18.525 0 0 0 4.16,-0.39 7.7,7.7 0 0 0 0.282,1.968 11.136,11.136 0 0 0 0.73,1.93 1.715,1.715 0 0 1 1.049,-0.98 2.174,2.174 0 0 1 1.714,0.243 2.246,2.246 0 0 1 0.992,1.318 2.838,2.838 0 0 1 -0.084,1.887 2.027,2.027 0 0 1 -1.227,1.127 9.88,9.88 0 0 0 2.517,2.05 3.327,3.327 0 0 0 2.42,0.442 z"
           id="path171" />
        <path
           d="M 26.194,0 12.709,46.449 6.366,81.323 H 0 L 6.355,0 Z"
           transform="translate(320.608,508.053)"
           style="fill:#ba8b72"
           id="path173" />
        <path
           data-name="Leg"
           d="m 23.449,0 c -0.941,24.13 -0.57,37.291 -0.359,39.483 0.211,2.192 1.41,16.875 9.552,42.576 H 26.021 C 15.232,57.4 11.465,42.721 10.228,39.483 8.991,36.245 5.336,23.085 0,0 Z"
           transform="translate(329.414,508.053)"
           style="fill:#d4a181"
           id="path175" />
        <path
           d="M 27.611,0 Q 22.35,23.975 9.411,76.539 H 0.1 C -0.588,40.571 2.337,16.9 7.4,0 Z"
           transform="translate(319.48,508.053)"
           style="fill:#465d7c"
           id="path177" />
        <path
           data-name="Pant"
           d="M 24.921,0 C 24,24.13 26.388,47.9 33.786,76.915 H 23.851 A 325.858,325.858 0 0 1 0,0 Z"
           transform="translate(327.988,508.053)"
           style="fill:#5b7aa3"
           id="path179" />
        <path
           data-name="Shoe"
           d="M 22.129,6.624 21.783,1.051 A 0.368,0.368 0 0 0 21.449,0.707 L 13.726,0 0.48,4.915 A 0.736,0.736 0 0 0 0.028,5.806 L 0.573,7.728 H 21.4 Z"
           transform="translate(340.871,588.273)"
           style="fill:#191847"
           id="path181" />
        <path
           data-name="Shoe"
           d="M 22.129,6.624 21.783,1.051 A 0.368,0.368 0 0 0 21.449,0.707 L 13.726,0 0.48,4.915 A 0.736,0.736 0 0 0 0.028,5.806 L 0.573,7.728 H 21.4 Z"
           transform="translate(306.267,588.273)"
           style="fill:#191847"
           id="path183" />
        <path
           d="m 20.012,5.63 5.613,3.082 c 0,0 1.181,4.493 2.824,4.521 0.424,0.2 0.262,-0.666 0.2,-1.528 -0.062,-0.862 -0.022,-1.7 0.77,-1.537 1.595,0.328 5.488,3.222 6.159,2.635 C 36.57,11.933 35.686,9.264 34.643,7.936 32.694,5.454 31.081,4.605 27.093,3.494 A 26.5,26.5 0 0 1 20.332,0 Z M 0,11.532 l 12.778,7 a 31.606,31.606 0 0 0 6.281,5.868 c 0.63,0.263 1.732,0.422 0.7,-1.406 -1.032,-1.828 -2.032,-3.8 -1.508,-4.361 0.231,-0.247 0.613,-0.234 1.022,-0.221 a 1.464,1.464 0 0 0 1.439,-0.491 q 0.627,-0.936 -6.71,-2.957 L 4.719,6.47 Z"
           transform="rotate(169.98,139.37364,263.48435)"
           style="fill:#d4a181"
           id="path185" />
        <path
           d="M 2.026,8.964 A 31.407,31.407 0 0 1 19.419,11.3 l 1.6,-5.9 C 16,1.791 9.336,-0.779 4.026,0.216 a 4.877,4.877 0 0 0 -2,8.748 z"
           transform="rotate(180,162.144,248.22)"
           style="fill:#51814f"
           id="path187" />
        <path
           d="M 12.3,0.866 C 7.8,1.45 3.623,2.034 1.193,1.556 -2.97,15.08 5.085,20.577 5.092,29.231 5.1,38.708 12.712,53.3 13.832,53.3 h 10.215 c 0.563,-7.234 3.4,-15.207 5.725,-23.083 7.423,-1.685 23.907,4.179 23.907,4.179 0,0 4.161,-8.605 3.847,-12.27 -9.6,-5.01 -17.817,-7.243 -24.593,-7.391 A 23.3,23.3 0 0 0 31.015,3.4 C 29.785,0.781 26.383,0 22.231,0 A 80.782,80.782 0 0 0 12.3,0.866 Z"
           transform="matrix(-0.985,0.174,-0.174,-0.985,356.51,519.178)"
           style="fill:#70ae6e"
           id="path189" />
      </g>
      <path
         d="m 270.12039,522.07274 a 15.964,20.54034 0 0 0 0.42086,-2.03629 l -10.63135,-3.15832 a 15.965,20.541627 0 0 0 -0.31271,2.06894 l -3.2466,-0.96459 -0.1226,0.68334 c -1.09281,6.09036 4.14185,12.19047 5.40733,13.56868 l -0.41751,2.32713 a 1.608,2.0689592 0 0 1 -1.96329,1.57836 l -1.06498,-0.31648 -0.49107,2.73694 7.44516,2.21148 0.49084,-2.73556 -1.06401,-0.31597 a 1.608,2.0689592 0 0 1 -1.2268,-2.52624 l 0.41729,-2.32555 c 1.60808,-0.53118 8.38995,-3.05386 9.48299,-9.14545 l 0.1226,-0.68326 z m -12.89882,-2.38928 2.23326,0.66325 a 14.355,18.470102 0 0 0 0.20866,7.26799 c -1.39539,-2.21564 -2.72057,-5.13162 -2.44192,-7.93124 z m 9.9397,10.1585 a 14.36,18.476529 0 0 0 2.66378,-6.4149 l 2.23325,0.66356 c -0.75804,2.65735 -2.94254,4.53056 -4.89703,5.75134 z"
         style="fill:#999999;stroke-width:1.13439"
         id="path193" />
      <path
         d="m 252.20057,499.13161 a 0.287,0.36927334 0 0 0 -0.21452,0.3219 l -0.44818,5.64178 -4.31137,1.16857 a 0.288,0.37055983 0 0 0 -0.0566,0.70131 l 4.03125,2.29179 -0.46683,5.64038 a 0.287,0.36927334 0 0 0 0.49944,0.28677 l 2.94032,-4.22767 4.02599,2.31572 a 0.287,0.36927334 0 0 0 0.36511,-0.52388 l -2.21485,-4.90442 2.95365,-4.20878 a 0.287,0.36927334 0 0 0 -0.27375,-0.60888 l -4.3072,1.19385 -2.20123,-4.91498 a 0.288,0.37055983 0 0 0 -0.32143,-0.17489 z"
         style="fill:#999999;fill-rule:evenodd;stroke-width:1.13439"
         id="path195" />
      <path
         d="m 277.13374,504.45776 c -0.15087,-0.85851 -1.58557,-4.0651 -4.68617,-1.3273 -1.61727,-4.47816 -4.03916,-2.69473 -4.5208,-2.06931 a 3.288,4.2305603 0 0 0 -0.41333,4.65526 l 2.87345,6.66986 5.18385,-3.69702 a 3.29,4.2331331 0 0 0 1.56684,-4.22997 z"
         style="fill:#b3b3b3;stroke-width:1.13439"
         id="path197" />
    </g>
  </g>
</svg>
